<svg xmlns="http://www.w3.org/2000/svg" viewBox="0 0 512 512" role="img" aria-label="Health Assistant logo">
  <defs>
    <linearGradient id="haGradient" x1="0" y1="0" x2="1" y2="1">
      <stop offset="0%" stop-color="#0f766e"/>
      <stop offset="100%" stop-color="#1f2937"/>
    </linearGradient>
  </defs>
  <rect width="512" height="512" rx="96" fill="url(#haGradient)"/>
  <circle cx="256" cy="208" r="88" fill="#ffffff" opacity="0.18"/>
  <path d="M152 328c0-51.9 46-94 104-94s104 42.1 104 94v48H152v-48z" fill="#ffffff" opacity="0.18"/>
  <path d="M296 140h-80a20 20 0 0 0-20 20v56h-56a20 20 0 0 0-20 20v80a20 20 0 0 0 20 20h56v56a20 20 0 0 0 20 20h80a20 20 0 0 0 20-20v-56h56a20 20 0 0 0 20-20v-80a20 20 0 0 0-20-20h-56v-56a20 20 0 0 0-20-20z" fill="#ffffff"/>
</svg>
